<?xml version="1.0" encoding="utf-8"?>
<!-- Generator: Adobe Illustrator 27.5.0, SVG Export Plug-In . SVG Version: 6.00 Build 0)  -->
<svg version="1.1" xmlns="http://www.w3.org/2000/svg" xmlns:xlink="http://www.w3.org/1999/xlink" x="0px" y="0px"
	 viewBox="0 0 2200 2200" style="enable-background:new 0 0 2200 2200;" xml:space="preserve">
<g id="background">
	<rect x="0" style="fill:#FFFFFF;" width="2200" height="2200"/>
</g>
<g id="Objects">
	<path d="M1891.633,743.341l-0.793,0.253c0.146-2.994,0.438-5.895,0.526-8.948c0.137-3.031,0.274-6.059,0.411-9.084
		c0.169-3.025,0.339-6.046,0.508-9.065c0.089-3.025,0.177-6.047,0.266-9.066c0.181-6.043,0.505-12.081,0.432-18.136l0.04-9.082
		l0.021-4.544c-0.006-1.515-0.088-3.032-0.13-4.549c-0.447-24.243-2.891-48.744-8.996-72.819c-1.648-6.9-4.126-13.743-6.404-20.588
		l-1.766-5.127c-0.612-1.705-1.328-3.399-1.991-5.097c-1.358-3.387-2.717-6.778-4.076-10.17
		c-5.575-13.532-11.844-26.876-18.057-40.27c-11.137-24.217-25.245-47.752-42.476-69.499l-6.488-8.142
		c-2.287-2.628-4.65-5.206-6.991-7.8l-7.087-7.739c-1.162-1.302-2.419-2.542-3.685-3.776l-3.786-3.71l-3.806-3.695
		c-1.28-1.219-2.611-2.372-3.919-3.558c-2.635-2.344-5.252-4.725-7.938-7.009c-5.436-4.472-10.881-8.97-16.572-13.078
		c-5.598-4.278-11.45-8.096-17.271-12.003c-5.918-3.688-11.841-7.423-17.937-10.74c-6.036-3.493-12.24-6.523-18.428-9.646
		c-6.251-2.893-12.508-5.851-18.876-8.382c-6.332-2.708-12.765-4.965-19.194-7.322c-6.464-2.114-12.935-4.321-19.469-6.095
		c-6.517-1.943-13.083-3.481-19.655-5.085c-6.583-1.389-13.18-2.873-19.799-3.93c-52.962-9.13-106.699-7.432-158.698,4.19
		c-13.007,2.902-25.883,6.553-38.643,10.696c-6.354,2.185-12.712,4.35-18.99,6.858l-4.719,1.833
		c-1.619,0.608-2.964,1.251-4.459,1.877l-8.752,3.799c-11.741,4.871-23.092,10.822-34.513,16.555l-16.754,9.45l-4.178,2.384
		c-1.392,0.796-2.727,1.693-4.092,2.537l-8.139,5.159c0.284,0.478,0.551,0.966,0.801,1.464c-2.213,1.429-4.848,3.13-7.689,4.965
		c-2.854,1.816-5.747,4.013-8.718,6.083c-2.947,2.106-5.888,4.208-8.617,6.158c-1.361,0.979-2.67,1.92-3.9,2.804
		c-1.225,0.89-2.312,1.796-3.331,2.583l-0.019-0.024c-4.259,3.597-8.58,7.165-12.944,10.717l-3.28,2.662l-3.177,2.779
		c-2.127,1.847-4.257,3.696-6.39,5.548c-8.693,7.261-16.832,15.079-25.074,22.778c-4.063,3.894-7.878,7.969-11.77,11.966
		c-1.923,2.018-3.842,4.031-5.756,6.039c-1.893,2.024-3.638,4.138-5.439,6.209c-3.566,4.164-7.061,8.344-10.455,12.539
		c-3.272,4.263-6.356,8.591-9.366,12.904c-20.745,26.628-39.12,54.735-54.997,83.649c-0.998,1.806-2.045,3.601-2.999,5.418
		l-2.826,5.463l-5.62,10.944l-1.398,2.74c-0.465,0.91-0.93,1.805-1.399,2.847l-2.796,6.035l-5.519,12.101
		c-1.761,4.063-3.333,8.199-4.982,12.303l-2.426,6.173c-0.811,2.057-1.619,4.116-2.297,6.203l-4.212,12.493l-2.059,6.254
		l-1.783,6.282c-0.247,1.095-0.568,2.417-0.95,3.934c-7.987-14.352-16.387-28.561-25.317-42.58
		c-3.516-5.366-7.039-10.836-10.571-16.127l-10.606-15.498c-7.201-10.296-14.439-20.595-21.984-30.786
		c-15.03-20.399-30.868-40.523-47.899-60.01c-16.994-19.502-35.321-38.293-55.173-55.839c-19.83-17.552-41.197-33.86-64.053-48.256
		l-8.631-5.32l-4.322-2.654l-4.447-2.459l-8.922-4.887l-4.468-2.437c-1.488-0.816-2.973-1.638-4.518-2.347l-18.395-8.818
		c-6.321-2.796-12.78-5.544-19.283-7.976c-13.009-4.946-26.272-9.151-39.716-12.623c-13.451-3.44-27.09-6.087-40.836-8.029
		c-3.881-4.668-14.469-5.926-20.76-4.165c-4.413-1.616-9.042-1.004-13.704,0.127c-4.67,1.064-9.348,2.281-14.158,1.69
		c-14.64-2.452-30.194-1.359-45.41,0.758c-15.263,2.098-30.175,5.207-44.779,6.58c-19.179,6.119-38.155,13.472-56.772,22.202
		c-18.625,8.7-36.747,19.204-53.882,31.526c-4.346,2.992-8.437,6.362-12.633,9.602c-2.106,1.613-4.07,3.404-6.109,5.109
		c-2.001,1.742-4.083,3.428-6.009,5.237l-11.445,11.004c-0.944,0.929-1.911,1.842-2.833,2.789l-2.659,2.927l-5.294,5.89
		c-13.942,15.826-26.24,33.085-35.784,51.441c-1.256,2.413-2.647,4.779-3.783,7.233l-3.454,7.346
		c-2.285,4.902-4.673,9.774-6.591,14.779c-1.989,4.983-4.123,9.933-5.965,14.949l-5.264,15.11
		c-6.517,20.247-11.504,40.762-15.133,61.406c-3.532,20.654-5.508,41.423-6.344,62.221c-0.123,5.198-0.312,10.403-0.365,15.606
		l0.224,15.605c0.004,2.623,0.159,5.165,0.291,7.722l0.398,7.673c0.147,2.555,0.238,5.126,0.434,7.671l0.653,7.621
		c0.755,10.204,2.059,20.251,3.3,30.331l2.246,14.988c0.746,5.002,1.73,9.902,2.589,14.864c3.672,19.728,8.043,39.202,13.163,58.233
		c5.114,19.033,10.785,37.738,16.854,56.131c6.109,18.356,12.622,36.37,19.341,54.13c1.734,4.57,3.469,9.142,5.205,13.717
		l5.336,13.595c3.672,9.088,7.509,18.213,11.308,27.324c7.806,18.13,15.911,36.185,24.572,53.979
		c17.216,35.651,36.052,70.6,56.206,104.781c40.264,68.425,86.021,133.501,134.649,195.808
		c48.638,62.344,100.442,121.701,153.475,179.047c53.016,57.393,107.458,112.586,161.721,166.779
		c-0.196,0.153-0.414,0.328-0.586,0.505c6.224,5.93,12.475,11.885,18.746,17.859c6.288,5.944,12.597,11.907,18.919,17.884
		c6.335,5.954,12.684,11.92,19.04,17.894c5.517,5.177,11.037,10.358,16.558,15.54c2.875,2.656,5.728,5.389,8.62,7.981l8.682,7.746
		c11.565,10.317,23.131,20.634,34.686,30.943c0.725,0.818,1.436,0.837,2.151,1.145l2.144,0.767l4.287,1.535l8.567,3.068
		c5.706,2.044,11.407,4.087,17.103,6.127l8.533,3.059l2.131,0.764c0.373,0.124,0.674,0.291,1.089,0.263
		c0.455-0.002,0.809,0.02,1.154-0.155l4.258-1.574c5.671-2.102,11.334-4.201,16.989-6.297c5.647-2.103,11.286-4.202,16.915-6.298
		l4.215-1.575c0.703-0.278,1.402-0.49,2.108-0.823l2.167-1.743c2.887-2.323,5.772-4.643,8.654-6.962
		c11.72-11.053,23.349-22.022,34.893-32.909c5.728-5.476,11.434-10.932,17.12-16.368c2.273-2.198,4.542-4.392,6.806-6.583
		c1.566-1.532,3.13-3.061,4.691-4.588c6.254-6.089,12.381-12.249,18.485-18.329c6.099-6.088,12.141-12.148,18.079-18.249
		l-0.603-0.188c9.542-9.013,18.707-17.525,28.034-25.755c4.674-4.101,9.409-8.101,14.287-12.013
		c4.261-3.441,8.623-6.835,13.145-10.164c-0.834,0.438-1.768,0.662-2.902,0.438c4.664-4.597,9.352-9.218,14.041-13.839
		c0.201,1.629-0.243,2.855-1.044,3.916c5.396-5.611,10.849-11.149,16.427-16.598c5.56-5.473,11.233-10.874,16.829-16.517
		c0.348-8.024,10.98-19.237,20.647-21.662c-0.111-6.767,8.645-14.708,14.899-16.552l0.044,0.088c0.183-0.013,0.32-0.023,0.479,0.034
		c0.422-5.533,4.297-8.147,8.989-10.159l0.442,0.79c40.792-43.357,80.808-87.675,119.382-133.531
		c0.188,0.159,0.379,0.364,0.545,0.549c10.662-13.429,21.409-26.834,32.345-40.085c10.791-13.395,21.815-26.596,32.502-40.127
		c10.822-13.399,21.299-27.126,31.634-40.932c10.156-13.97,20.151-28.041,29.396-42.662c-0.689,0.474-5.831,7.535-10.996,14.742
		c-5.234,7.143-10.546,14.393-11.324,15.455l-1.28-1.069c17.4-23.42,34.153-47.474,50.642-71.734
		c8.094-12.253,16.339-24.386,24.177-36.833c3.946-6.202,7.956-12.353,11.842-18.595l11.571-18.784
		c0.91,1.285,0.642,2.542,0.117,3.804c18.103-31.033,36.558-61.885,54.288-93.195c17.69-31.284,34.798-63.09,50.417-95.21
		c15.374-31.773,29.865-64.769,41.466-99.386c5.846-17.26,10.787-35.065,14.888-53.065c4.049-18.049,6.936-36.523,8.7-55.076
		c2.479-2.498,3.099-6.828,2.314-10.267c1.749-2.729,2.974-5.723,3.77-8.92c0.772-3.209,1.22-6.572,1.612-9.964
		c0.368-3.403,0.783-6.793,1.225-10.182c0.454-3.385,1.124-6.693,2.286-9.837C1893.358,757.681,1894.522,749.943,1891.633,743.341z
		 M1794.177,786.234c-0.742,4.126-2.418,8.34-2.642,12.403c-6.862,17.916-12.775,35.794-18.598,53.943
		c-5.851,18.127-11.742,36.485-18.823,54.848c-6.739,18.263-14.109,36.437-21.873,54.556c-1.935,4.531-3.884,9.062-5.898,13.58
		c-2.01,4.512-3.959,9.072-6.052,13.53c-4.152,8.947-8.208,17.948-12.467,26.862c-17.016,35.671-35.648,70.697-55.527,104.948
		c-0.507-0.23-1.013-0.466-1.506-0.719c-31.543,50.423-65.559,99.006-99.928,147.255c0.245,0.134,0.465,0.251,0.691,0.412
		c-1.95,2.036-5.398,6.957-9.724,13.192c-4.344,6.226-9.59,13.746-14.793,21.205c-5.24,7.436-10.696,14.631-15.302,20.301
		c-4.62,5.66-8.501,9.713-10.867,10.675c-20.964,24.27-41.527,49.034-63.153,72.727c-21.682,23.637-44.611,46.047-70.083,65.409
		c-42.114,40.994-81.693,83.206-122.228,124.962l-15.193,15.671c-5.11,5.189-10.224,10.381-15.34,15.577
		c-10.202,10.419-20.643,20.66-31.064,30.955c-10.532,10.199-21.079,20.422-31.911,30.444c-5.406,5.019-10.846,10.021-16.324,15
		c-2.761,2.469-5.524,4.941-8.291,7.415l-4.173,3.691l-1.009,0.887l-0.566,0.466l-1.132,0.926c0.194,0.198,0.368,0.374,0.549,0.584
		c-5.857,3.654-11.043,7.274-15.956,11.2c-3.571,2.864-7.04,5.836-10.485,9.036l-2.585,2.436l-1.294,1.248l-0.648,0.631
		l-0.326,0.315c-0.122,0.097-0.305,0.067-0.398-0.044c-1.731-1.507-3.473-2.977-5.235-4.43
		c-7.046-5.786-14.434-11.392-22.393-17.482l-2.993-2.308l-1.513-1.169l-0.76-0.588l-0.19-0.148l-0.339-0.288l-0.682-0.58
		l-10.906-9.297c-7.226-6.242-14.422-12.522-21.564-18.856c-14.229-12.718-28.215-25.687-41.51-39.273
		c-0.428,0.355-0.822,0.685-1.24,1.072c-32.706-36.177-70.198-69.397-105.069-105.878c-21.303-23.21-43.702-45.8-65.888-68.822
		c-22.097-23.083-44.076-46.529-64.36-71.346c0.189-0.158,0.423-0.31,0.634-0.443c-33.582-40.898-69.04-82.521-104.777-120.083
		c-2.155-8.951-13.093-16.166-18.012-24.799c0.205-3.454-4.141-7.041-6.524-9.569c-3.551-8.099-8.05-15.939-13.092-23.661
		c-4.923-7.795-10.401-15.465-16.047-23.118c-5.597-7.682-11.206-15.443-16.666-23.226c-2.747-3.881-5.337-7.839-7.808-11.83
		c-2.48-3.985-4.851-7.998-7.06-12.046c-15.667-29.645-32.205-61.561-48.443-94.974c-4.005-8.373-8.045-16.819-12.112-25.322
		c-3.939-8.55-7.904-17.157-11.888-25.804c-3.845-8.696-7.707-17.432-11.579-26.191c-3.83-8.785-7.648-17.705-11.34-26.568
		c-7.428-17.752-14.595-35.517-21.204-53.215c-6.578-17.702-12.614-35.335-17.924-52.776c-1.273-4.367-2.694-8.698-3.846-13.041
		c-1.193-4.337-2.382-8.656-3.564-12.954c-1.07-4.308-2.135-8.596-3.195-12.86c-1.088-4.261-1.906-8.522-2.873-12.743
		c-0.452-2.113-0.963-4.216-1.367-6.319c-0.397-2.104-0.793-4.2-1.188-6.29c-0.773-4.18-1.655-8.328-2.236-12.459
		c-0.645-4.128-1.285-8.227-1.92-12.293c-0.503-4.07-1.002-8.108-1.496-12.111c-0.242,0.056-0.514,0.116-0.759,0.142l-0.271-2.986
		l-0.154-2.987l-0.305-5.972l-0.303-5.971c-0.092-1.988-0.049-3.947-0.08-5.922c-0.003-3.941-0.111-7.88-0.031-11.818l0.463-11.804
		l0.125-2.948l0.254-2.94l0.505-5.876l0.501-5.871c0.194-1.953,0.504-3.892,0.748-5.838c0.549-3.883,0.97-7.782,1.611-11.64
		l2.101-11.528c0.31-1.928,0.747-3.825,1.206-5.716l1.325-5.68l1.314-5.674c0.486-1.875,1.058-3.724,1.58-5.586
		c1.103-3.703,2.04-7.459,3.256-11.107l3.73-10.891c5.358-14.323,11.552-28.168,18.914-41.106
		c7.487-12.849,15.875-24.886,25.132-35.914c4.915-5.237,9.517-10.727,14.822-15.435c2.572-2.433,5.047-4.974,7.78-7.158
		l3.994-3.402l4.147-3.223c11.036-8.597,23.046-15.926,35.652-22.148c6.258-3.188,12.792-5.89,19.328-8.531
		c3.333-1.196,6.621-2.48,9.983-3.595c3.386-1.063,6.707-2.269,10.149-3.183c1.891,0.581,3.797,0.798,5.715,0.734
		c1.942-0.002,3.91-0.254,5.883-0.713c0.987-0.227,1.977-0.503,2.968-0.815c1.005-0.273,2.014-0.577,3.021-0.91
		c2.019-0.653,4.025-1.457,6.04-2.188c4.052-1.374,8.016-2.911,11.74-3.476c1.852-0.316,3.619-0.48,5.267-0.373
		c1.659,0.162,3.192,0.571,4.559,1.316c1.63-0.683,3.238-1.141,4.823-1.35c1.59-0.179,3.148-0.169,4.666-0.035
		c1.518,0.141,2.992,0.373,4.43,0.718c1.441,0.368,2.838,0.79,4.192,1.198c2.709,0.803,5.248,1.572,7.679,1.877
		c2.431,0.289,4.742-0.113,7.048-1.483c3.425,3.008,7.917,2.638,11.734,0.978c-0.031,0.06-0.091,0.15-0.151,0.239
		c20.62,2.54,40.865,7.578,60.016,14.65c9.575,3.534,18.902,7.565,27.804,12.17c1.112,0.523,2.261,1.155,3.417,1.807l3.451,1.908
		l6.893,3.784l3.442,1.879l3.345,2.094l6.683,4.155c35.442,22.489,66.843,51.504,95.571,85.217
		c28.736,33.731,55.031,71.718,81.111,111.705c11.743,18.306,22.882,37.742,33.485,57.654c5.37,9.905,10.394,20.124,15.506,30.254
		l7.395,15.402c2.487,5.117,4.762,10.365,7.174,15.526c9.282,10.607,15.691,25.309,20.836,41.329
		c1.358,3.986,2.409,8.121,3.562,12.259c1.106,4.149,2.254,8.325,3.276,12.527c0.994,4.196,1.991,8.402,2.985,12.598
		c0.514,2.085,1.027,4.166,1.54,6.243c0.482,2.067,0.963,4.129,1.441,6.182c0.99,4.093,2.043,8.122,3.192,12.06
		c1.05,3.932,2.147,7.769,3.403,11.49c2.62,7.463,5.197,14.349,8.82,20.631c1.853,3.156,3.599,6.06,5.736,8.831
		c2.106,2.762,4.457,5.348,7.089,7.741c5.078,4.712,11.183,8.633,18.797,11.692c10.215,1.78,18.201-2.608,24.896-9.53
		c3.35-3.449,6.382-7.508,9.231-11.618c2.881-4.112,5.311-8.26,7.872-11.847c0.806-3.179,1.38-6.37,1.699-9.554
		c0.698-0.926,1.381-1.863,2.047-2.813c10.764-15.463,17.076-34.125,18.789-59.223c-0.171-15.396,9.293-27.541,11.157-42.049
		c1.808-16.578,3.41-36.338,2.543-51.303c1.14-3.585,2.84-6.998,4.167-10.501c1.336-3.503,2.235-7.115,2.14-11.063
		c0.089-2.561,0.29-5.177,0.587-7.828c0.327-2.641,0.616-5.365,1.258-8.012c1.204-5.322,2.616-10.758,4.45-16.046
		c1.968-5.237,4.058-10.438,6.36-15.395c2.467-4.891,4.996-9.596,7.458-14.016c1.347-3.161,2.695-6.325,4.046-9.493
		c1.358-3.162,2.614-6.372,4.18-9.444c3.006-6.212,5.81-12.411,9.308-18.766l4.999-9.489c1.667-3.164,3.522-6.205,5.275-9.315
		l5.335-9.282l5.68-9.041c15.198-24.05,32.653-46.541,52.635-65.876c15.084-13.484,30.072-26.448,45.433-38.84
		c3.904-3.015,7.743-6.106,11.594-9.182c3.985-2.892,7.938-5.828,11.867-8.806c0.99-0.734,1.947-1.516,2.958-2.218l3.049-2.088
		l6.075-4.224c2.027-1.408,4.022-2.87,6.064-4.261l6.247-3.995l6.232-4.053c1.041-0.674,2.067-1.377,3.12-2.033l3.213-1.882
		l12.84-7.652c8.801-4.649,17.656-9.709,26.396-13.811c8.865-4.16,17.995-7.904,27.33-11.273c9.353-3.317,18.94-6.11,28.678-8.493
		c33.297-3.612,67.114-3.107,99.958,2.771c8.233,1.365,16.322,3.331,24.395,5.355l5.993,1.711l3.003,0.846l2.96,0.961l5.933,1.903
		l5.848,2.118c15.621,5.624,30.504,13.008,44.579,21.66c6.926,4.477,13.804,9.093,20.189,14.326c3.302,2.494,6.331,5.295,9.478,7.98
		c3.052,2.796,5.952,5.781,8.958,8.657c11.67,11.868,22.127,25.11,31.181,39.425c8.918,14.41,16.328,29.886,22.34,45.955l2.17,6.065
		c0.706,2.028,1.501,4.022,2.058,6.107l3.636,12.392c2.034,8.382,4.122,16.75,5.435,25.298l-0.733,0.104
		c8.013,43.263,11.123,86.319,4.215,131.315c2.139,1.782,3.328,3.689,3.911,5.666
		C1794.624,782.133,1794.532,784.172,1794.177,786.234z"/>
</g>
</svg>
